<svg width="135" height="76" fill="none" xmlns="http://www.w3.org/2000/svg"><g clip-path="url(#a)"><mask id="b" style="mask-type:luminance" maskUnits="userSpaceOnUse" x="0" y="0" width="135" height="76"><path d="M0 0h135v75.938H0V0Z" fill="#fff"/></mask><g mask="url(#b)" fill="#fff"><path d="M39.728 7.038a.647.647 0 0 1 .915.632l-.378 5.111-.523 7.006-.927 12.502-1.063 14.415L36.64 61.69l-.511 6.899h-.006c-.09.03-.173.06-.262.095a225.948 225.948 0 0 0-14.588 5.758c-.484.21-.969.42-1.454.635a.64.64 0 0 1-.834-.298l-2.46-4.924-5.888-11.79h-.006L5.047 46.89 1.88 40.542.068 36.92a.645.645 0 0 1 .198-.81 234.099 234.099 0 0 1 13.872-9.325.645.645 0 0 1 .916.26l4.692 12.428c.1.241.456.184.475-.076l1.692-22.842c0-.231.124-.446.325-.56 5.887-3.362 11.297-6.112 17.49-8.956Zm21.306 4.765a.645.645 0 0 1 .837.662l-1.005 13.514-1.057 14.296-1.106 14.867-.47 6.378a.637.637 0 0 1-.484.572 230.864 230.864 0 0 0-17.068 4.934.637.637 0 0 1-.838-.652l.44-5.926 1.111-14.974 1.064-14.391.927-12.45a.645.645 0 0 1 .398-.548 226.864 226.864 0 0 1 17.25-6.282Zm45.761-9.666a.646.646 0 0 1 .679.848L85.168 56.563a.638.638 0 0 1-.539.43c-2.49.258-17.514 2.948-21.565 3.855a.637.637 0 0 1-.773-.672l.441-5.967 1.1-14.855 1.057-14.273 1.066-14.357a.647.647 0 0 1 .462-.57 218.082 218.082 0 0 1 15.67-3.989.646.646 0 0 1 .783.629l-1.225 14.604c-.017.649.89.82 1.11.209l5.78-16.367a.645.645 0 0 1 .507-.5c6.505-1.275 11.062-1.886 17.753-2.603Zm10.654 31.34a.584.584 0 0 1-.599.49c-1.052-.038-2.087-.034-3.139-.05a.585.585 0 0 1-.545-.774l4.179-12.152a1.558 1.558 0 0 1 1.551-1.064l.355.016c.348.016.604.33.55.678l-2.352 12.856ZM134.637.85c-.095-.024-.195-.066-.291-.066-3.211 0-6.647.066-10.482.15-3.974.088-11.187.633-11.306.657-.152.45-23.368 54.07-23.368 54.07a.642.642 0 0 0 .654.843c3.59-.258 13.459-1.037 17.722-1.131a.646.646 0 0 0 .594-.434l1.93-5.686a.967.967 0 0 1 .914-.657c1.95-.008 1.132-.043 2.987.005a.646.646 0 0 1 .618.749l-.816 5.233c-.06.38.225.725.618.736 4.718.137 12.43.233 17.077.643a.64.64 0 0 0 .695-.6l.315-5.788.754-14.534.731-13.976 1.016-19.602a.642.642 0 0 0-.362-.612ZM64.884 68.24c1.355-.3 1.982-.934 2.156-2.29.165-1.28-.24-1.587-1.701-1.27l-1.024.224-.454 3.564c.41-.093.614-.138 1.023-.228Zm-2.869-4.417c1.424-.326 2.283-.544 3.696-.847 2.918-.625 3.952.052 3.633 2.514-.293 2.266-1.805 3.861-4.543 4.47l-1.164.26-.516 4.055c-.94.218-1.004.23-1.948.459.37-4.525.298-6.612.842-10.911Zm8.89.968c.804-.156 1.206-.232 2.007-.38l.03.67.05-.009c.577-.557 1.31-1.022 2.203-1.178.326-.057.644-.067.824-.038-.22.746-.329 1.122-.548 1.876a4.184 4.184 0 0 0-.928.058c-.686.122-1.295.54-1.667.944l-.736 5.63c-.91.175-1.365.265-2.278.449l1.043-8.022Zm6.445-1.16c.892-.148 1.337-.22 2.226-.358l-1.062 7.96c-.886.145-1.33.22-2.22.374.43-3.26.642-4.854 1.056-7.976Zm.336-2.92c.934-.153 1.4-.227 2.33-.37l-.215 1.618c-.93.144-1.396.219-2.33.373l.215-1.621Zm3.243 2.355c.905-.136 1.357-.201 2.258-.327.158 1.24.235 1.866.384 3.13.142 1.28.172 2.86.172 2.86a.742.742 0 0 1 .068-.01s.504-1.684.999-3.018c.496-1.35.744-2.019 1.241-3.344.881-.112 1.321-.165 2.199-.267a427.131 427.131 0 0 0-3.192 8.179c-1.22.16-1.832.246-3.058.426a283.98 283.98 0 0 0-1.071-7.63Zm8.647-1.126c.868-.097 1.3-.142 2.166-.23l-1.09 7.895c-.863.09-1.295.138-2.16.239l1.084-7.905Zm.348-2.898a179.82 179.82 0 0 1 2.268-.235l-.222 1.604c-.905.09-1.358.137-2.266.237l.22-1.606Zm6.336 10.002c-.324.122-.941.267-1.594.323-1.226.105-1.84-.251-1.573-2.18l1.242-8.943a204.23 204.23 0 0 1 2.168-.18l-1.235 8.838c-.084.606.098.685.425.659.245-.02.46-.069.58-.11l-.014 1.593Zm6.313-9.242c-.597.03-.896.045-1.494.078.576-.94.777-1.192 1.356-2.117.746-.037 1.059-.08 1.803-.11a200.36 200.36 0 0 0-1.665 2.149Zm-1.061 4.174c.73-.038.852-.334.92-.813.087-.613-.198-.98-.928-.94-.746.04-1.283.42-1.516 1.61.373.1 1.022.17 1.524.143Zm.247-3.21c2.675-.14 2.869 1.42 2.735 2.354-.228 1.595-.653 2.1-2.626 2.2-.55.027-1.557-.01-2.12-.13l-.015.109c-.205 1.562.11 2.062 1.276 1.998.825-.044 1.558-.238 2.434-.528l.126 1.474c-.415.21-1.629.63-3.117.713-2.673.151-3.186-1.12-2.793-3.923.353-2.505 1.225-4.117 4.1-4.267Zm6.497 6.034c.561-.01 1.117-.318 1.502-.654l.553-3.806c-.241-.104-.536-.162-1.002-.155-.851.012-1.391.314-1.711 2.523-.266 1.84.065 2.102.658 2.091Zm-2.073 3.949c.82-.152 1.37-.273 2.018-.485.707-.23 1.121-.57 1.274-1.626l.134-.917h-.032c-.445.31-1.251.8-2.309.824-1.444.031-2.236-.692-1.833-3.498.507-3.527 1.764-4.461 3.902-4.493 1.044-.016 2.358.216 3.264.579l-1.103 7.544c-.318 2.17-1.5 2.93-2.936 3.28a28.84 28.84 0 0 1-2.312.427l-.067-1.635Zm8.563-10.069c.837.01 1.256.017 2.091.036l-1.158 7.83c-.833-.019-1.25-.026-2.084-.035l1.151-7.83Zm.375-2.876c.877.01 1.315.019 2.19.039l-.236 1.59c-.874-.02-1.312-.027-2.188-.038l.234-1.59Zm7.476 7.09c.256-1.7.087-2.497-.914-2.546-.986-.048-1.388.721-1.642 2.421-.272 1.821-.067 2.37.916 2.419.984.048 1.366-.473 1.64-2.294Zm-4.659-.17c.388-2.617 1.318-4.138 4.037-4.005 2.736.133 3.107 1.716 2.711 4.334-.406 2.68-1.325 3.996-4.051 3.863-2.71-.132-3.095-1.513-2.697-4.193Zm7.839 2.311c.684.244 1.576.588 2.636.682.776.069 1.074-.096 1.161-.667.073-.473-.05-.71-.807-1.016l-.363-.144c-1.706-.67-2.394-1.232-2.174-2.68.26-1.717 1.44-2.091 3.011-1.956 1.126.098 2.359.462 2.886.7-.211.568-.316.853-.526 1.427-.629-.203-1.568-.478-2.329-.545-.682-.06-.952.134-1.013.532-.054.353.039.592.84.913l.364.143c1.837.732 2.376 1.383 2.148 2.861-.282 1.836-1.539 2.273-3.215 2.122-1.486-.135-2.635-.58-3.165-.781l.546-1.59Z"/></g><mask id="c" style="mask-type:luminance" maskUnits="userSpaceOnUse" x="0" y="0" width="135" height="76"><path d="M0 0h135v75.938H0V0Z" fill="#fff"/></mask><g mask="url(#c)" fill="#fff"><path d="M39.728 7.038a.647.647 0 0 1 .915.632l-.378 5.111-.523 7.006-.927 12.502-1.063 14.415L36.64 61.69l-.511 6.899h-.006c-.09.03-.173.06-.262.095a225.948 225.948 0 0 0-14.588 5.758c-.484.21-.969.42-1.454.635a.64.64 0 0 1-.834-.298l-2.46-4.924-5.888-11.79h-.006L5.047 46.89 1.88 40.542.068 36.92a.645.645 0 0 1 .198-.81 234.099 234.099 0 0 1 13.872-9.325.645.645 0 0 1 .916.26l4.692 12.428c.1.241.456.184.475-.076l1.692-22.842c0-.231.124-.446.325-.56 5.887-3.362 11.297-6.112 17.49-8.956Zm21.306 4.765a.645.645 0 0 1 .837.662l-1.005 13.514-1.057 14.296-1.106 14.867-.47 6.378a.637.637 0 0 1-.484.572 230.864 230.864 0 0 0-17.068 4.934.637.637 0 0 1-.838-.652l.44-5.926 1.111-14.974 1.064-14.391.927-12.45a.645.645 0 0 1 .398-.548 226.864 226.864 0 0 1 17.25-6.282Zm45.761-9.666a.646.646 0 0 1 .679.848L85.168 56.563a.638.638 0 0 1-.539.43c-2.49.258-17.514 2.948-21.565 3.855a.637.637 0 0 1-.773-.672l.441-5.967 1.1-14.855 1.057-14.273 1.066-14.357a.647.647 0 0 1 .462-.57 218.082 218.082 0 0 1 15.67-3.989.646.646 0 0 1 .783.629l-1.225 14.604c-.017.649.89.82 1.11.209l5.78-16.367a.645.645 0 0 1 .507-.5c6.505-1.275 11.062-1.886 17.753-2.603Zm10.654 31.34a.584.584 0 0 1-.599.49c-1.052-.038-2.087-.034-3.139-.05a.585.585 0 0 1-.545-.774l4.179-12.152a1.558 1.558 0 0 1 1.551-1.064l.355.016c.348.016.604.33.55.678l-2.352 12.856ZM134.637.85c-.095-.024-.195-.066-.291-.066-3.211 0-6.647.066-10.482.15-3.974.088-11.187.633-11.306.657-.152.45-23.368 54.07-23.368 54.07a.642.642 0 0 0 .654.843c3.59-.258 13.459-1.037 17.722-1.131a.646.646 0 0 0 .594-.434l1.93-5.686a.967.967 0 0 1 .914-.657c1.95-.008 1.132-.043 2.987.005a.646.646 0 0 1 .618.749l-.816 5.233c-.06.38.225.725.618.736 4.718.137 12.43.233 17.077.643a.64.64 0 0 0 .695-.6l.315-5.788.754-14.534.731-13.976 1.016-19.602a.642.642 0 0 0-.362-.612ZM64.884 68.24c1.355-.3 1.982-.934 2.156-2.29.165-1.28-.24-1.587-1.701-1.27l-1.024.224-.454 3.564c.41-.093.614-.138 1.023-.228Zm-2.869-4.417c1.424-.326 2.283-.544 3.696-.847 2.918-.625 3.952.052 3.633 2.514-.293 2.266-1.805 3.861-4.543 4.47l-1.164.26-.516 4.055c-.94.218-1.004.23-1.948.459.37-4.525.298-6.612.842-10.911Zm8.89.968c.804-.156 1.206-.232 2.007-.38l.03.67.05-.009c.577-.557 1.31-1.022 2.203-1.178.326-.057.644-.067.824-.038-.22.746-.329 1.122-.548 1.876a4.184 4.184 0 0 0-.928.058c-.686.122-1.295.54-1.667.944l-.736 5.63c-.91.175-1.365.265-2.278.449l1.043-8.022Zm6.445-1.16c.892-.148 1.337-.22 2.226-.358l-1.062 7.96c-.886.145-1.33.22-2.22.374.43-3.26.642-4.854 1.056-7.976Zm.336-2.92c.934-.153 1.4-.227 2.33-.37l-.215 1.618c-.93.144-1.396.219-2.33.373l.215-1.621Zm3.243 2.355c.905-.136 1.357-.201 2.258-.327.158 1.24.235 1.866.384 3.13.142 1.28.172 2.86.172 2.86a.742.742 0 0 1 .068-.01s.504-1.684.999-3.018c.496-1.35.744-2.019 1.241-3.344.881-.112 1.321-.165 2.199-.267a427.131 427.131 0 0 0-3.192 8.179c-1.22.16-1.832.246-3.058.426a283.98 283.98 0 0 0-1.071-7.63Zm8.647-1.126c.868-.097 1.3-.142 2.166-.23l-1.09 7.895c-.863.09-1.295.138-2.16.239l1.084-7.905Zm.348-2.898a179.82 179.82 0 0 1 2.268-.235l-.222 1.604c-.905.09-1.358.137-2.266.237l.22-1.606Zm6.336 10.002c-.324.122-.941.267-1.594.323-1.226.105-1.84-.251-1.573-2.18l1.242-8.943a204.23 204.23 0 0 1 2.168-.18l-1.235 8.838c-.084.606.098.685.425.659.245-.02.46-.069.58-.11l-.014 1.593Zm6.313-9.242c-.597.03-.896.045-1.494.078.576-.94.777-1.192 1.356-2.117.746-.037 1.059-.08 1.803-.11a200.36 200.36 0 0 0-1.665 2.149Zm-1.061 4.174c.73-.038.852-.334.92-.813.087-.613-.198-.98-.928-.94-.746.04-1.283.42-1.516 1.61.373.1 1.022.17 1.524.143Zm.247-3.21c2.675-.14 2.869 1.42 2.735 2.354-.228 1.595-.653 2.1-2.626 2.2-.55.027-1.557-.01-2.12-.13l-.015.109c-.205 1.562.11 2.062 1.276 1.998.825-.044 1.558-.238 2.434-.528l.126 1.474c-.415.21-1.629.63-3.117.713-2.673.151-3.186-1.12-2.793-3.923.353-2.505 1.225-4.117 4.1-4.267Zm6.497 6.034c.561-.01 1.117-.318 1.502-.654l.553-3.806c-.241-.104-.536-.162-1.002-.155-.851.012-1.391.314-1.711 2.523-.266 1.84.065 2.102.658 2.091Zm-2.073 3.949c.82-.152 1.37-.273 2.018-.485.707-.23 1.121-.57 1.274-1.626l.134-.917h-.032c-.445.31-1.251.8-2.309.824-1.444.031-2.236-.692-1.833-3.498.507-3.527 1.764-4.461 3.902-4.493 1.044-.016 2.358.216 3.264.579l-1.103 7.544c-.318 2.17-1.5 2.93-2.936 3.28a28.84 28.84 0 0 1-2.312.427l-.067-1.635Zm8.563-10.069c.837.01 1.256.017 2.091.036l-1.158 7.83c-.833-.019-1.25-.026-2.084-.035l1.151-7.83Zm.375-2.876c.877.01 1.315.019 2.19.039l-.236 1.59c-.874-.02-1.312-.027-2.188-.038l.234-1.59Zm7.476 7.09c.256-1.7.087-2.497-.914-2.546-.986-.048-1.388.721-1.642 2.421-.272 1.821-.067 2.37.916 2.419.984.048 1.366-.473 1.64-2.294Zm-4.659-.17c.388-2.617 1.318-4.138 4.037-4.005 2.736.133 3.107 1.716 2.711 4.334-.406 2.68-1.325 3.996-4.051 3.863-2.71-.132-3.095-1.513-2.697-4.193Zm7.839 2.311c.684.244 1.576.588 2.636.682.776.069 1.074-.096 1.161-.667.073-.473-.05-.71-.807-1.016l-.363-.144c-1.706-.67-2.394-1.232-2.174-2.68.26-1.717 1.44-2.091 3.011-1.956 1.126.098 2.359.462 2.886.7-.211.568-.316.853-.526 1.427-.629-.203-1.568-.478-2.329-.545-.682-.06-.952.134-1.013.532-.054.353.039.592.84.913l.364.143c1.837.732 2.376 1.383 2.148 2.861-.282 1.836-1.539 2.273-3.215 2.122-1.486-.135-2.635-.58-3.165-.781l.546-1.59Z"/></g><mask id="d" style="mask-type:luminance" maskUnits="userSpaceOnUse" x="0" y="0" width="135" height="76"><path d="M0 0h135v75.938H0V0Z" fill="#fff"/></mask><g mask="url(#d)" fill="#fff"><path d="M39.728 7.038a.647.647 0 0 1 .915.632l-.378 5.111-.523 7.006-.927 12.502-1.063 14.415L36.64 61.69l-.511 6.899h-.006c-.09.03-.173.06-.262.095a225.948 225.948 0 0 0-14.588 5.758c-.484.21-.969.42-1.454.635a.64.64 0 0 1-.834-.298l-2.46-4.924-5.888-11.79h-.006L5.047 46.89 1.88 40.542.068 36.92a.645.645 0 0 1 .198-.81 234.099 234.099 0 0 1 13.872-9.325.645.645 0 0 1 .916.26l4.692 12.428c.1.241.456.184.475-.076l1.692-22.842c0-.231.124-.446.325-.56 5.887-3.362 11.297-6.112 17.49-8.956Zm21.306 4.765a.645.645 0 0 1 .837.662l-1.005 13.514-1.057 14.296-1.106 14.867-.47 6.378a.637.637 0 0 1-.484.572 230.864 230.864 0 0 0-17.068 4.934.637.637 0 0 1-.838-.652l.44-5.926 1.111-14.974 1.064-14.391.927-12.45a.645.645 0 0 1 .398-.548 226.864 226.864 0 0 1 17.25-6.282Zm45.761-9.666a.646.646 0 0 1 .679.848L85.168 56.563a.638.638 0 0 1-.539.43c-2.49.258-17.514 2.948-21.565 3.855a.637.637 0 0 1-.773-.672l.441-5.967 1.1-14.855 1.057-14.273 1.066-14.357a.647.647 0 0 1 .462-.57 218.082 218.082 0 0 1 15.67-3.989.646.646 0 0 1 .783.629l-1.225 14.604c-.017.649.89.82 1.11.209l5.78-16.367a.645.645 0 0 1 .507-.5c6.505-1.275 11.062-1.886 17.753-2.603Zm10.654 31.34a.584.584 0 0 1-.599.49c-1.052-.038-2.087-.034-3.139-.05a.585.585 0 0 1-.545-.774l4.179-12.152a1.558 1.558 0 0 1 1.551-1.064l.355.016c.348.016.604.33.55.678l-2.352 12.856ZM134.637.85c-.095-.024-.195-.066-.291-.066-3.211 0-6.647.066-10.482.15-3.974.088-11.187.633-11.306.657-.152.45-23.368 54.07-23.368 54.07a.642.642 0 0 0 .654.843c3.59-.258 13.459-1.037 17.722-1.131a.646.646 0 0 0 .594-.434l1.93-5.686a.967.967 0 0 1 .914-.657c1.95-.008 1.132-.043 2.987.005a.646.646 0 0 1 .618.749l-.816 5.233c-.06.38.225.725.618.736 4.718.137 12.43.233 17.077.643a.64.64 0 0 0 .695-.6l.315-5.788.754-14.534.731-13.976 1.016-19.602a.642.642 0 0 0-.362-.612ZM64.884 68.24c1.355-.3 1.982-.934 2.156-2.29.165-1.28-.24-1.587-1.701-1.27l-1.024.224-.454 3.564c.41-.093.614-.138 1.023-.228Zm-2.869-4.417c1.424-.326 2.283-.544 3.696-.847 2.918-.625 3.952.052 3.633 2.514-.293 2.266-1.805 3.861-4.543 4.47l-1.164.26-.516 4.055c-.94.218-1.004.23-1.948.459.37-4.525.298-6.612.842-10.911Zm8.89.968c.804-.156 1.206-.232 2.007-.38l.03.67.05-.009c.577-.557 1.31-1.022 2.203-1.178.326-.057.644-.067.824-.038-.22.746-.329 1.122-.548 1.876a4.184 4.184 0 0 0-.928.058c-.686.122-1.295.54-1.667.944l-.736 5.63c-.91.175-1.365.265-2.278.449l1.043-8.022Zm6.445-1.16c.892-.148 1.337-.22 2.226-.358l-1.062 7.96c-.886.145-1.33.22-2.22.374.43-3.26.642-4.854 1.056-7.976Zm.336-2.92c.934-.153 1.4-.227 2.33-.37l-.215 1.618c-.93.144-1.396.219-2.33.373l.215-1.621Zm3.243 2.355c.905-.136 1.357-.201 2.258-.327.158 1.24.235 1.866.384 3.13.142 1.28.172 2.86.172 2.86a.742.742 0 0 1 .068-.01s.504-1.684.999-3.018c.496-1.35.744-2.019 1.241-3.344.881-.112 1.321-.165 2.199-.267a427.131 427.131 0 0 0-3.192 8.179c-1.22.16-1.832.246-3.058.426a283.98 283.98 0 0 0-1.071-7.63Zm8.647-1.126c.868-.097 1.3-.142 2.166-.23l-1.09 7.895c-.863.09-1.295.138-2.16.239l1.084-7.905Zm.348-2.898a179.82 179.82 0 0 1 2.268-.235l-.222 1.604c-.905.09-1.358.137-2.266.237l.22-1.606Zm6.336 10.002c-.324.122-.941.267-1.594.323-1.226.105-1.84-.251-1.573-2.18l1.242-8.943a204.23 204.23 0 0 1 2.168-.18l-1.235 8.838c-.084.606.098.685.425.659.245-.02.46-.069.58-.11l-.014 1.593Zm6.313-9.242c-.597.03-.896.045-1.494.078.576-.94.777-1.192 1.356-2.117.746-.037 1.059-.08 1.803-.11a200.36 200.36 0 0 0-1.665 2.149Zm-1.061 4.174c.73-.038.852-.334.92-.813.087-.613-.198-.98-.928-.94-.746.04-1.283.42-1.516 1.61.373.1 1.022.17 1.524.143Zm.247-3.21c2.675-.14 2.869 1.42 2.735 2.354-.228 1.595-.653 2.1-2.626 2.2-.55.027-1.557-.01-2.12-.13l-.015.109c-.205 1.562.11 2.062 1.276 1.998.825-.044 1.558-.238 2.434-.528l.126 1.474c-.415.21-1.629.63-3.117.713-2.673.151-3.186-1.12-2.793-3.923.353-2.505 1.225-4.117 4.1-4.267Zm6.497 6.034c.561-.01 1.117-.318 1.502-.654l.553-3.806c-.241-.104-.536-.162-1.002-.155-.851.012-1.391.314-1.711 2.523-.266 1.84.065 2.102.658 2.091Zm-2.073 3.949c.82-.152 1.37-.273 2.018-.485.707-.23 1.121-.57 1.274-1.626l.134-.917h-.032c-.445.31-1.251.8-2.309.824-1.444.031-2.236-.692-1.833-3.498.507-3.527 1.764-4.461 3.902-4.493 1.044-.016 2.358.216 3.264.579l-1.103 7.544c-.318 2.17-1.5 2.93-2.936 3.28a28.84 28.84 0 0 1-2.312.427l-.067-1.635Zm8.563-10.069c.837.01 1.256.017 2.091.036l-1.158 7.83c-.833-.019-1.25-.026-2.084-.035l1.151-7.83Zm.375-2.876c.877.01 1.315.019 2.19.039l-.236 1.59c-.874-.02-1.312-.027-2.188-.038l.234-1.59Zm7.476 7.09c.256-1.7.087-2.497-.914-2.546-.986-.048-1.388.721-1.642 2.421-.272 1.821-.067 2.37.916 2.419.984.048 1.366-.473 1.64-2.294Zm-4.659-.17c.388-2.617 1.318-4.138 4.037-4.005 2.736.133 3.107 1.716 2.711 4.334-.406 2.68-1.325 3.996-4.051 3.863-2.71-.132-3.095-1.513-2.697-4.193Zm7.839 2.311c.684.244 1.576.588 2.636.682.776.069 1.074-.096 1.161-.667.073-.473-.05-.71-.807-1.016l-.363-.144c-1.706-.67-2.394-1.232-2.174-2.68.26-1.717 1.44-2.091 3.011-1.956 1.126.098 2.359.462 2.886.7-.211.568-.316.853-.526 1.427-.629-.203-1.568-.478-2.329-.545-.682-.06-.952.134-1.013.532-.054.353.039.592.84.913l.364.143c1.837.732 2.376 1.383 2.148 2.861-.282 1.836-1.539 2.273-3.215 2.122-1.486-.135-2.635-.58-3.165-.781l.546-1.59Z"/></g><mask id="e" style="mask-type:luminance" maskUnits="userSpaceOnUse" x="0" y="0" width="135" height="76"><path d="M0 0h135v75.938H0V0Z" fill="#fff"/></mask><g mask="url(#e)" fill="#fff"><path d="M39.728 7.038a.647.647 0 0 1 .915.632l-.378 5.111-.523 7.006-.927 12.502-1.063 14.415L36.64 61.69l-.511 6.899h-.006c-.09.03-.173.06-.262.095a225.948 225.948 0 0 0-14.588 5.758c-.484.21-.969.42-1.454.635a.64.64 0 0 1-.834-.298l-2.46-4.924-5.888-11.79h-.006L5.047 46.89 1.88 40.542.068 36.92a.645.645 0 0 1 .198-.81 234.099 234.099 0 0 1 13.872-9.325.645.645 0 0 1 .916.26l4.692 12.428c.1.241.456.184.475-.076l1.692-22.842c0-.231.124-.446.325-.56 5.887-3.362 11.297-6.112 17.49-8.956Zm21.306 4.765a.645.645 0 0 1 .837.662l-1.005 13.514-1.057 14.296-1.106 14.867-.47 6.378a.637.637 0 0 1-.484.572 230.864 230.864 0 0 0-17.068 4.934.637.637 0 0 1-.838-.652l.44-5.926 1.111-14.974 1.064-14.391.927-12.45a.645.645 0 0 1 .398-.548 226.864 226.864 0 0 1 17.25-6.282Zm45.761-9.666a.646.646 0 0 1 .679.848L85.168 56.563a.638.638 0 0 1-.539.43c-2.49.258-17.514 2.948-21.565 3.855a.637.637 0 0 1-.773-.672l.441-5.967 1.1-14.855 1.057-14.273 1.066-14.357a.647.647 0 0 1 .462-.57 218.082 218.082 0 0 1 15.67-3.989.646.646 0 0 1 .783.629l-1.225 14.604c-.017.649.89.82 1.11.209l5.78-16.367a.645.645 0 0 1 .507-.5c6.505-1.275 11.062-1.886 17.753-2.603Zm10.654 31.34a.584.584 0 0 1-.599.49c-1.052-.038-2.087-.034-3.139-.05a.585.585 0 0 1-.545-.774l4.179-12.152a1.558 1.558 0 0 1 1.551-1.064l.355.016c.348.016.604.33.55.678l-2.352 12.856ZM134.637.85c-.095-.024-.195-.066-.291-.066-3.211 0-6.647.066-10.482.15-3.974.088-11.187.633-11.306.657-.152.45-23.368 54.07-23.368 54.07a.642.642 0 0 0 .654.843c3.59-.258 13.459-1.037 17.722-1.131a.646.646 0 0 0 .594-.434l1.93-5.686a.967.967 0 0 1 .914-.657c1.95-.008 1.132-.043 2.987.005a.646.646 0 0 1 .618.749l-.816 5.233c-.06.38.225.725.618.736 4.718.137 12.43.233 17.077.643a.64.64 0 0 0 .695-.6l.315-5.788.754-14.534.731-13.976 1.016-19.602a.642.642 0 0 0-.362-.612ZM64.884 68.24c1.355-.3 1.982-.934 2.156-2.29.165-1.28-.24-1.587-1.701-1.27l-1.024.224-.454 3.564c.41-.093.614-.138 1.023-.228Zm-2.869-4.417c1.424-.326 2.283-.544 3.696-.847 2.918-.625 3.952.052 3.633 2.514-.293 2.266-1.805 3.861-4.543 4.47l-1.164.26-.516 4.055c-.94.218-1.004.23-1.948.459.37-4.525.298-6.612.842-10.911Zm8.89.968c.804-.156 1.206-.232 2.007-.38l.03.67.05-.009c.577-.557 1.31-1.022 2.203-1.178.326-.057.644-.067.824-.038-.22.746-.329 1.122-.548 1.876a4.184 4.184 0 0 0-.928.058c-.686.122-1.295.54-1.667.944l-.736 5.63c-.91.175-1.365.265-2.278.449l1.043-8.022Zm6.445-1.16c.892-.148 1.337-.22 2.226-.358l-1.062 7.96c-.886.145-1.33.22-2.22.374.43-3.26.642-4.854 1.056-7.976Zm.336-2.92c.934-.153 1.4-.227 2.33-.37l-.215 1.618c-.93.144-1.396.219-2.33.373l.215-1.621Zm3.243 2.355c.905-.136 1.357-.201 2.258-.327.158 1.24.235 1.866.384 3.13.142 1.28.172 2.86.172 2.86a.742.742 0 0 1 .068-.01s.504-1.684.999-3.018c.496-1.35.744-2.019 1.241-3.344.881-.112 1.321-.165 2.199-.267a427.131 427.131 0 0 0-3.192 8.179c-1.22.16-1.832.246-3.058.426a283.98 283.98 0 0 0-1.071-7.63Zm8.647-1.126c.868-.097 1.3-.142 2.166-.23l-1.09 7.895c-.863.09-1.295.138-2.16.239l1.084-7.905Zm.348-2.898a179.82 179.82 0 0 1 2.268-.235l-.222 1.604c-.905.09-1.358.137-2.266.237l.22-1.606Zm6.336 10.002c-.324.122-.941.267-1.594.323-1.226.105-1.84-.251-1.573-2.18l1.242-8.943a204.23 204.23 0 0 1 2.168-.18l-1.235 8.838c-.084.606.098.685.425.659.245-.02.46-.069.58-.11l-.014 1.593Zm6.313-9.242c-.597.03-.896.045-1.494.078.576-.94.777-1.192 1.356-2.117.746-.037 1.059-.08 1.803-.11a200.36 200.36 0 0 0-1.665 2.149Zm-1.061 4.174c.73-.038.852-.334.92-.813.087-.613-.198-.98-.928-.94-.746.04-1.283.42-1.516 1.61.373.1 1.022.17 1.524.143Zm.247-3.21c2.675-.14 2.869 1.42 2.735 2.354-.228 1.595-.653 2.1-2.626 2.2-.55.027-1.557-.01-2.12-.13l-.015.109c-.205 1.562.11 2.062 1.276 1.998.825-.044 1.558-.238 2.434-.528l.126 1.474c-.415.21-1.629.63-3.117.713-2.673.151-3.186-1.12-2.793-3.923.353-2.505 1.225-4.117 4.1-4.267Zm6.497 6.034c.561-.01 1.117-.318 1.502-.654l.553-3.806c-.241-.104-.536-.162-1.002-.155-.851.012-1.391.314-1.711 2.523-.266 1.84.065 2.102.658 2.091Zm-2.073 3.949c.82-.152 1.37-.273 2.018-.485.707-.23 1.121-.57 1.274-1.626l.134-.917h-.032c-.445.31-1.251.8-2.309.824-1.444.031-2.236-.692-1.833-3.498.507-3.527 1.764-4.461 3.902-4.493 1.044-.016 2.358.216 3.264.579l-1.103 7.544c-.318 2.17-1.5 2.93-2.936 3.28a28.84 28.84 0 0 1-2.312.427l-.067-1.635Zm8.563-10.069c.837.01 1.256.017 2.091.036l-1.158 7.83c-.833-.019-1.25-.026-2.084-.035l1.151-7.83Zm.375-2.876c.877.01 1.315.019 2.19.039l-.236 1.59c-.874-.02-1.312-.027-2.188-.038l.234-1.59Zm7.476 7.09c.256-1.7.087-2.497-.914-2.546-.986-.048-1.388.721-1.642 2.421-.272 1.821-.067 2.37.916 2.419.984.048 1.366-.473 1.64-2.294Zm-4.659-.17c.388-2.617 1.318-4.138 4.037-4.005 2.736.133 3.107 1.716 2.711 4.334-.406 2.68-1.325 3.996-4.051 3.863-2.71-.132-3.095-1.513-2.697-4.193Zm7.839 2.311c.684.244 1.576.588 2.636.682.776.069 1.074-.096 1.161-.667.073-.473-.05-.71-.807-1.016l-.363-.144c-1.706-.67-2.394-1.232-2.174-2.68.26-1.717 1.44-2.091 3.011-1.956 1.126.098 2.359.462 2.886.7-.211.568-.316.853-.526 1.427-.629-.203-1.568-.478-2.329-.545-.682-.06-.952.134-1.013.532-.054.353.039.592.84.913l.364.143c1.837.732 2.376 1.383 2.148 2.861-.282 1.836-1.539 2.273-3.215 2.122-1.486-.135-2.635-.58-3.165-.781l.546-1.59Z"/></g></g><defs><clipPath id="a"><path fill="#fff" d="M0 0h135v75.938H0z"/></clipPath></defs></svg>