<svg width="151" height="74" fill="none" xmlns="http://www.w3.org/2000/svg"><mask id="a" style="mask-type:luminance" maskUnits="userSpaceOnUse" x="0" y="0" width="151" height="74"><path d="M0 0h151v74H0V0Z" fill="#fff"/></mask><g mask="url(#a)" fill="#fff"><path fill-rule="evenodd" clip-rule="evenodd" d="M80.688 26.837c0-.95-.02-1.902-.49-2.74h2.897c-.471.838-.491 1.79-.491 2.74v7.853c0 .937.02 1.899.49 2.737h-2.896c.47-.838.49-1.8.49-2.737v-4.037H74.39v4.037c0 .937.02 1.899.483 2.737h-2.886c.46-.838.48-1.8.48-2.737v-7.853c0-.95-.02-1.902-.48-2.74h2.886c-.462.838-.483 1.79-.483 2.74v2.978h6.3v-2.978Zm7.64 10.173c2.007 0 2.54-1.951 2.54-3.682 0-2.437-.774-4.803-3.03-4.803-1.997 0-2.53 1.94-2.53 3.68 0 2.442.764 4.805 3.02 4.805Zm-.708.754c-2.934 0-4.098-2.368-4.098-4.647 0-3.238 1.821-5.345 5.019-5.345 2.942 0 4.113 2.363 4.113 4.636 0 3.239-1.836 5.356-5.034 5.356Zm11.369-2.99c0 1.986-1.953 2.99-3.764 2.99-.845 0-1.574-.173-2.353-.469-.238-.076-.365-.16-.365-.456 0-.503.084-1.004.097-1.522.66 1.044 1.199 1.693 2.6 1.693 1.255 0 1.999-.59 1.999-1.78 0-2.551-4.212-2.132-4.212-5.222 0-1.564 1.232-2.236 3.238-2.236.637 0 1.297.104 1.935.25.06.023.278.065.278.186 0 .382-.02.987-.048 1.42-.827-1.023-1.255-1.232-2.228-1.232-.835 0-1.605.382-1.605 1.28 0 2.48 4.428 2.192 4.428 5.098Zm2.414.04c0 .694 0 1.735 1.805 1.735 1.959 0 3.021-1.255 3.021-3.303 0-2.318-1.184-4.309-3.124-4.309-1.255 0-1.702.972-1.702 2.135v3.742Zm-1.58-3.68c0-1.061 0-2.69-.49-3.171l2.004-.191v.957c0 .134 0 .253.085.253.168 0 1.17-1.21 2.748-1.21 2.467 0 3.764 2.551 3.764 4.681 0 3.075-2.873 5.098-5.803 5.098h-.728v3.421c0 .774 0 1.68.384 2.26h-2.343c.38-.58.38-1.486.38-2.26v-9.838Zm11.005-3.362v7.394c0 .768 0 1.673.385 2.26h-2.34c.387-.587.387-1.492.387-2.26v-5.639c-.031-.711-.031-1.13-.471-1.428l2.039-.327Zm-.526-3.462.974 1.394-1.525.982-.992-1.354 1.543-1.022Zm4.149.833V28.1h1.746c.086 0 .189 0 .189.159 0 .434-.89.605-1.576.605h-.359v6.412c0 .689.106 1.274.961 1.274.38 0 1.058-.277 1.295-.503l-.091.9c-.012.188-1.017.818-1.826.818-1.405 0-1.915-.905-1.915-2.172v-6.73h-.898v-.669l.898-.094.083-2.564 1.493-.392Zm6.021 11.446c1.282 0 1.912-1.126 1.912-2.316v-2.117l-1.148.57c-1.569.77-2.404 1.185-2.404 2.375 0 1.007.678 1.488 1.64 1.488Zm2.173.962c-.195-.779-.17-1.294-.341-1.294-.079 0-.107.039-.127.06-.557.797-1.002 1.447-2.49 1.447-1.472 0-2.641-.798-2.641-2.323 0-1.818 2.409-2.569 3.833-3.236 1.212-.565 1.505-.615 1.505-1.964 0-1.046-.399-1.845-1.654-1.845-2.024 0-1.197 2.014-2.578 2.014-.468 0-.784-.233-.784-.734 0-1.418 2.142-1.904 3.784-1.904 1.516 0 2.811.327 2.811 1.696v4.592c0 1.234-.064 2.504.597 3.367l-1.915.124Zm2.532-.124c.385-.588.385-1.493.385-2.261v-9.943c0-.856 0-1.667-.547-2.085l2.123-.338v12.366c0 .768 0 1.673.387 2.261h-2.348Zm11.961-7.394c0-.987-.23-1.508-1.316-1.508-2.362 0-3.645 1.756-3.645 4.141 0 1.9.939 4.007 3.134 4.007 1.232 0 1.827-.922 1.827-2.088v-4.552Zm.066 7.645-.086-.797c0-.06-.021-.193-.104-.193-.149 0-.918 1.076-2.874 1.076-2.537 0-3.666-2.47-3.666-4.666 0-3.338 2.201-5.326 5.558-5.326.387 0 .741.04 1.106.082v-2.631c0-.856 0-1.667-.461-2.086l2.04-.337v12.366c0 .798 0 1.693.379 2.26l-1.892.252Zm7.301-.668c2.006 0 2.54-1.951 2.54-3.682 0-2.437-.774-4.803-3.031-4.803-2.004 0-2.53 1.94-2.53 3.68 0 2.442.759 4.805 3.021 4.805Zm-.698.754c-2.945 0-4.117-2.368-4.117-4.647 0-3.238 1.837-5.345 5.032-5.345 2.93 0 4.109 2.363 4.109 4.636 0 3.239-1.837 5.356-5.024 5.356Zm-61.821 4.87h-.063c-.511-.9-1.235-1.88-3.425-1.88-3.345 0-4.67 2.693-4.67 5.664 0 3.283 1.71 5.827 5.201 5.827 1.829 0 3.06-.774 3.678-1.444v.127c0 .942-1.528 2.898-4.857 2.898-3.868 0-6.259-3-6.228-6.828 0-4.285 2.57-7.166 6.896-7.166 1.232 0 2.13.169 3.56.169l-.092 2.633Zm4.255 10.029c1.283 0 1.913-1.132 1.913-2.318v-2.112l-1.141.565c-1.579.769-2.406 1.19-2.406 2.38 0 1.004.681 1.486 1.634 1.486Zm-.19-13.334h1.17l2.623 3.513h-.731l-2.48-2.197-2.501 2.197h-.681l2.6-3.514Zm2.364 14.294c-.19-.773-.17-1.294-.34-1.294-.09 0-.103.04-.131.06-.547.798-.997 1.437-2.49 1.437-1.462 0-2.633-.786-2.633-2.31 0-1.816 2.396-2.57 3.832-3.246 1.208-.558 1.5-.605 1.5-1.957 0-1.056-.399-1.842-1.651-1.842-2.029 0-1.195 1.999-2.58 1.999-.471 0-.785-.223-.785-.724 0-1.426 2.151-1.907 3.79-1.907 1.508 0 2.803.337 2.803 1.693v4.6c0 1.232-.06 2.51.605 3.367l-1.92.124Zm4.512-9.566v.73c0 .163-.02.334.127.334.198 0 1.129-1.282 2.788-1.282 1.599 0 2.6.779 2.6 2.722v4.682c0 .771 0 1.666.34 2.256h-1.916v-5.723c0-1.339-.19-2.804-1.892-2.804-1.69 0-2.006 1.485-2.006 2.904v3.367c0 .771 0 1.666.387 2.256h-2.347c.391-.59.391-1.485.391-2.256v-4.974c0-.86 0-1.674-.454-2.093l1.983-.119Zm13.949 2.145h-.106c-.518-.96-.897-1.607-2.13-1.607-1.902 0-2.944 1.922-2.944 4.218 0 2.097.791 3.85 3.132 3.85.784 0 1.725-.31 2.322-.94v.336c0 1.086-1.487 1.767-3.114 1.767-2.677 0-4.253-2.15-4.253-4.676 0-3.01 1.983-5.311 5.131-5.311 1.042 0 1.962.218 1.962.298v2.065Zm4.954.649c1.045 0 1.599 0 1.599-.793 0-.77-.577-1.587-1.62-1.587-1.34 0-1.922 1.275-2.172 2.38h2.193Zm-2.32.628c-.043.397-.083.729-.083 1.175 0 1.944.895 3.799 3.111 3.799 1.037 0 2.059-.417 2.573-.982v.228c0 1.11-1.789 2.127-3.364 2.127-2.791 0-4.106-2.462-4.106-4.993 0-2.71 1.528-4.994 4.447-4.994 2.042 0 3.253 1.319 3.253 2.678 0 .962-.701.962-2.019.962h-3.812Zm7.106.049c0-1.492 0-2.933-.551-3.367.789-.025 1.533-.104 1.794-.104.377 0 .146 1.042.377 1.042.114 0 .806-1.26 2.069-1.26.744 0 1.168.297 1.168.793 0 .402-.207.697-.743.697-.41 0-.832-.072-1.344-.072-1.059 0-1.191.744-1.191 1.662v4.301c0 .772 0 1.677.385 2.28h-2.34c.376-.603.376-1.508.376-2.28v-3.692Zm13.752-1.428c0-.98-.23-1.505-1.315-1.505-2.363 0-3.638 1.753-3.638 4.139 0 1.906.931 4.016 3.124 4.016 1.234 0 1.829-.925 1.829-2.097V46.1Zm.071 7.652-.086-.798c0-.057-.025-.191-.111-.191-.147 0-.911 1.063-2.874 1.063-2.535 0-3.658-2.462-3.658-4.648 0-3.345 2.196-5.339 5.55-5.339.387 0 .744.05 1.108.084v-2.625c0-.863 0-1.675-.46-2.096l2.039-.33v12.37c0 .794 0 1.692.377 2.257l-1.885.253Zm6.532-6.901c1.045 0 1.599 0 1.599-.793 0-.77-.582-1.587-1.619-1.587-1.346 0-1.923 1.275-2.174 2.38h2.194Zm-2.328.628c-.035.397-.075.729-.075 1.175 0 1.944.895 3.799 3.104 3.799 1.045 0 2.067-.417 2.572-.982v.228c0 1.11-1.78 2.127-3.364 2.127-2.788 0-4.099-2.462-4.099-4.993 0-2.71 1.528-4.994 4.443-4.994 2.046 0 3.258 1.319 3.258 2.678 0 .962-.7.962-2.018.962h-3.821ZM72.707 58.272c0-.944 0-2.033-.47-2.74h2.853c-.47.707-.47 1.796-.47 2.74v9.752h1.618c1.192 0 2.28-.163 3.345-1.19l-.407 1.966c-.42.035-.876.062-1.296.062h-5.894c.63-.813.721-3.764.721-4.743v-5.847Zm11.705 10.171c2.004 0 2.535-1.944 2.535-3.677 0-2.445-.764-4.805-3.025-4.805-2 0-2.53 1.939-2.53 3.677 0 2.444.764 4.805 3.02 4.805Zm-.703.751c-2.935 0-4.106-2.36-4.106-4.641 0-3.233 1.83-5.344 5.027-5.344 2.934 0 4.106 2.359 4.106 4.64 0 3.238-1.837 5.345-5.027 5.345Zm7.236-9.779v.734c0 .164-.016.332.13.332.193 0 1.13-1.272 2.791-1.272 1.592 0 2.593.777 2.593 2.718v4.679c0 .773 0 1.666.344 2.256h-1.92V63.14c0-1.344-.19-2.801-1.892-2.801-1.682 0-1.998 1.487-1.998 2.908v3.36c0 .773 0 1.666.386 2.256h-2.342c.38-.59.38-1.483.38-2.256v-4.974c0-.858 0-1.671-.451-2.093l1.979-.124Zm13.027 2.053c0-.987-.23-1.507-1.315-1.507-2.358 0-3.638 1.753-3.638 4.136 0 1.904.931 4.01 3.124 4.01 1.235 0 1.829-.916 1.829-2.087v-4.552Zm.064 7.642-.084-.79c0-.063-.02-.19-.106-.19-.147 0-.916 1.064-2.874 1.064-2.53 0-3.657-2.464-3.657-4.656 0-3.348 2.185-5.329 5.559-5.329a8.7 8.7 0 0 1 1.098.087v-2.638c0-.853 0-1.671-.47-2.088l2.049-.332v12.368c0 .796 0 1.686.385 2.256l-1.9.248Zm3.114-6.224c0-1.482 0-2.925-.557-3.362.787-.022 1.529-.109 1.789-.109.377 0 .154 1.049.377 1.049.114 0 .814-1.255 2.069-1.255.749 0 1.169.293 1.169.791 0 .395-.207.695-.741.695-.408 0-.827-.065-1.338-.065-1.068 0-1.192.73-1.192 1.647v4.309c0 .769 0 1.671.377 2.276h-2.34c.387-.605.387-1.507.387-2.276v-3.7Zm7.594-3.676v7.396c0 .773 0 1.666.38 2.256h-2.333c.38-.59.38-1.483.38-2.256v-5.643c-.016-.71-.016-1.126-.466-1.424l2.039-.33Zm-.531-3.47.982 1.4-1.536.98-.979-1.355 1.533-1.024Zm3.982 3.675v.734c0 .164-.021.332.126.332.195 0 1.134-1.272 2.788-1.272 1.599 0 2.6.777 2.6 2.718v4.679c0 .773 0 1.666.345 2.256h-1.92V63.14c0-1.344-.19-2.801-1.893-2.801-1.682 0-2.005 1.487-2.005 2.908v3.36c0 .773 0 1.666.386 2.256h-2.339c.376-.59.376-1.483.376-2.256v-4.974c0-.858 0-1.671-.442-2.093l1.978-.124Zm9.707 8.609c1.277 0 1.915-1.125 1.915-2.318v-2.113l-1.151.568c-1.576.774-2.406 1.19-2.406 2.383 0 1.002.683 1.48 1.642 1.48Zm2.173.962c-.19-.78-.167-1.294-.345-1.294-.083 0-.105.047-.126.06-.551.798-1.001 1.442-2.489 1.442-1.462 0-2.641-.788-2.641-2.32 0-1.818 2.403-2.567 3.828-3.236 1.219-.563 1.515-.605 1.515-1.962 0-1.046-.4-1.84-1.663-1.84-2.018 0-1.191 2.004-2.572 2.004-.471 0-.785-.226-.785-.731 0-1.419 2.146-1.9 3.785-1.9 1.513 0 2.811.33 2.811 1.694v4.6c0 1.227-.059 2.501.594 3.36l-1.912.123ZM34.186 15.85h-5.004v-4.927h5.004v4.927Zm0 6.61h-5.004v-4.914h5.004v4.915Zm6.765 0h-5.014v-4.914h5.014v4.915Zm-13.53-.01h-5.003v-4.914h5.003v4.915Zm27.077 26.596h-5.012v-4.92h5.012v4.92Zm0-13.27h-5.012v-4.92h5.012v4.92ZM47.72 29.13h-5.01v-4.91h5.011v4.91Zm13.504 13.283h-5.003v-4.917h5.003v4.917Zm-6.853 0H49.36v-4.917h5.011v4.917ZM27.429 9.235h-5.011V4.32h5.011v4.915Zm6.762 0h-5.01V4.32h5.01v4.915Zm6.765 0h-5.012V4.32h5.012v4.915Zm6.757 0H42.7V4.32h5.012v4.915ZM27.421 15.85h-5.003v-4.927h5.003v4.927Zm13.53 0h-5.014v-4.927h5.014v4.927Zm6.762 0H42.7v-4.927h5.012v4.927Zm0 6.6H42.7v-4.914h5.012v4.915Zm6.785 6.68h-5.012v-4.91h5.012v4.91Zm6.726 19.926h-5.003v-4.92h5.003v4.92Zm0-13.276h-5.003v-4.919h5.003v4.92Zm0-6.64h-5.003v-4.914h5.003v4.914Zm6.737 19.92H62.95v-4.923h5.011v4.924Zm0-6.647H62.95V37.5h5.011v4.914Zm0-6.633H62.95v-4.919h5.011v4.92Zm0-6.64H62.95v-4.914h5.011v4.914Zm-39.803-4.369 4.584-1.993 2.026 4.498-4.584 1.993-2.026-4.497Z"/><path fill-rule="evenodd" clip-rule="evenodd" d="M41.874 25.428 38.648 29.2l-3.832-3.164 3.218-3.769 3.84 3.161ZM27.386 49.046h-5.009v-4.92h5.009v4.92Zm0-6.636h-5.009v-4.914h5.009v4.915Zm0-6.634h-5.009v-4.92h5.009v4.92Zm0-6.646h-5.009v-4.91h5.009v4.91Zm6.737 19.926h-5.011v-4.92h5.011v4.92Z"/><path fill-rule="evenodd" clip-rule="evenodd" d="m28.398 38.292 4.708 1.686-1.718 4.62-4.71-1.681 1.72-4.625Z"/><path fill-rule="evenodd" clip-rule="evenodd" d="m29.678 32.145 3.835 3.164-3.217 3.77-3.84-3.165 3.222-3.769Z"/><path fill-rule="evenodd" clip-rule="evenodd" d="m29.552 27.27 4.71 1.68-1.71 4.619-4.71-1.684 1.71-4.614ZM40.85 49.06h-5.01v-4.923h5.01v4.924Z"/><path fill-rule="evenodd" clip-rule="evenodd" d="m36.513 38.205 2.51 4.265-4.341 2.455-2.51-4.265 4.341-2.455Z"/><path fill-rule="evenodd" clip-rule="evenodd" d="M36.584 39.4h-5.019v-4.914h5.02v4.915Z"/><path fill-rule="evenodd" clip-rule="evenodd" d="m36.372 28.087 2.504 4.26-4.34 2.457-2.51-4.265 4.346-2.452Zm8.867 9.271 4.71 1.683-1.71 4.63-4.718-1.692 1.718-4.621Zm1.5-6.838 2.51 4.254-4.347 2.46-2.502-4.26 4.339-2.455Zm.981 18.526h-5.01v-4.92h5.011v4.92Z"/><path fill-rule="evenodd" clip-rule="evenodd" d="m40.662 36.51 3.836 3.158-3.218 3.764-3.84-3.154 3.222-3.769Z"/><path fill-rule="evenodd" clip-rule="evenodd" d="m38.694 32.969 4.708 1.678-1.718 4.627-4.71-1.688 1.72-4.617Z"/><path fill-rule="evenodd" clip-rule="evenodd" d="M43.382 33.284H38.37v-4.915h5.01v4.915ZM20.644 49.06H2.169V24.22h18.475v24.84Zm27.069 19.837H22.418V50.762h25.295v18.135Zm32.975-42.06c0-.95-.02-1.902-.49-2.74h2.897c-.471.838-.491 1.79-.491 2.74v7.853c0 .937.02 1.899.49 2.737h-2.896c.47-.838.49-1.8.49-2.737v-4.037H74.39v4.037c0 .937.02 1.899.483 2.737h-2.886c.46-.838.48-1.8.48-2.737v-7.853c0-.95-.02-1.902-.48-2.74h2.886c-.462.838-.483 1.79-.483 2.74v2.978h6.3v-2.978Zm7.64 10.173c2.007 0 2.54-1.951 2.54-3.682 0-2.437-.774-4.803-3.03-4.803-1.997 0-2.53 1.94-2.53 3.68 0 2.442.764 4.805 3.02 4.805Zm-.708.754c-2.934 0-4.098-2.368-4.098-4.647 0-3.238 1.821-5.345 5.019-5.345 2.942 0 4.113 2.363 4.113 4.636 0 3.239-1.836 5.356-5.034 5.356Zm11.369-2.99c0 1.986-1.953 2.99-3.764 2.99-.845 0-1.574-.173-2.353-.469-.238-.076-.365-.16-.365-.456 0-.503.084-1.004.097-1.522.66 1.044 1.199 1.693 2.6 1.693 1.255 0 1.999-.59 1.999-1.78 0-2.551-4.212-2.132-4.212-5.222 0-1.564 1.232-2.236 3.238-2.236.637 0 1.297.104 1.935.25.06.023.278.065.278.186 0 .382-.02.987-.048 1.42-.827-1.023-1.255-1.232-2.228-1.232-.835 0-1.605.382-1.605 1.28 0 2.48 4.428 2.192 4.428 5.098Zm2.414.04c0 .694 0 1.735 1.805 1.735 1.959 0 3.021-1.255 3.021-3.303 0-2.318-1.184-4.309-3.124-4.309-1.255 0-1.702.972-1.702 2.135v3.742Zm-1.58-3.68c0-1.061 0-2.69-.49-3.171l2.004-.191v.957c0 .134 0 .253.085.253.168 0 1.17-1.21 2.748-1.21 2.467 0 3.764 2.551 3.764 4.681 0 3.075-2.873 5.098-5.803 5.098h-.728v3.421c0 .774 0 1.68.384 2.26h-2.343c.38-.58.38-1.486.38-2.26v-9.838Zm11.005-3.362v7.394c0 .768 0 1.673.385 2.26h-2.34c.387-.587.387-1.492.387-2.26v-5.639c-.031-.711-.031-1.13-.471-1.428l2.039-.327Zm-.526-3.462.974 1.394-1.525.982-.992-1.354 1.543-1.022Zm4.149.833V28.1h1.746c.086 0 .189 0 .189.159 0 .434-.89.605-1.576.605h-.359v6.412c0 .689.106 1.274.961 1.274.38 0 1.058-.277 1.295-.503l-.091.9c-.012.188-1.017.818-1.826.818-1.405 0-1.915-.905-1.915-2.172v-6.73h-.898v-.669l.898-.094.083-2.564 1.493-.392Zm6.021 11.446c1.282 0 1.912-1.126 1.912-2.316v-2.117l-1.148.57c-1.569.77-2.404 1.185-2.404 2.375 0 1.007.678 1.488 1.64 1.488Zm2.173.962c-.195-.779-.17-1.294-.341-1.294-.079 0-.107.039-.127.06-.557.797-1.002 1.447-2.49 1.447-1.472 0-2.641-.798-2.641-2.323 0-1.818 2.409-2.569 3.833-3.236 1.212-.565 1.505-.615 1.505-1.964 0-1.046-.399-1.845-1.654-1.845-2.024 0-1.197 2.014-2.578 2.014-.468 0-.784-.233-.784-.734 0-1.418 2.142-1.904 3.784-1.904 1.516 0 2.811.327 2.811 1.696v4.592c0 1.234-.064 2.504.597 3.367l-1.915.124Zm2.532-.124c.385-.588.385-1.493.385-2.261v-9.943c0-.856 0-1.667-.547-2.085l2.123-.338v12.366c0 .768 0 1.673.387 2.261h-2.348Zm11.961-7.394c0-.987-.23-1.508-1.316-1.508-2.362 0-3.645 1.756-3.645 4.141 0 1.9.939 4.007 3.134 4.007 1.232 0 1.827-.922 1.827-2.088v-4.552Zm.066 7.645-.086-.797c0-.06-.021-.193-.104-.193-.149 0-.918 1.076-2.874 1.076-2.537 0-3.666-2.47-3.666-4.666 0-3.338 2.201-5.326 5.558-5.326.387 0 .741.04 1.106.082v-2.631c0-.856 0-1.667-.461-2.086l2.04-.337v12.366c0 .798 0 1.693.379 2.26l-1.892.252Zm7.301-.668c2.006 0 2.54-1.951 2.54-3.682 0-2.437-.774-4.803-3.031-4.803-2.004 0-2.53 1.94-2.53 3.68 0 2.442.759 4.805 3.021 4.805Zm-.698.754c-2.945 0-4.117-2.368-4.117-4.647 0-3.238 1.837-5.345 5.032-5.345 2.93 0 4.109 2.363 4.109 4.636 0 3.239-1.837 5.356-5.024 5.356Zm-61.821 4.87h-.063c-.511-.9-1.235-1.88-3.425-1.88-3.345 0-4.67 2.693-4.67 5.664 0 3.283 1.71 5.827 5.201 5.827 1.829 0 3.06-.774 3.678-1.444v.127c0 .942-1.528 2.898-4.857 2.898-3.868 0-6.259-3-6.228-6.828 0-4.285 2.57-7.166 6.896-7.166 1.232 0 2.13.169 3.56.169l-.092 2.633Zm4.255 10.029c1.283 0 1.913-1.132 1.913-2.318v-2.112l-1.141.565c-1.579.769-2.406 1.19-2.406 2.38 0 1.004.681 1.486 1.634 1.486Zm-.19-13.334h1.17l2.623 3.513h-.731l-2.48-2.197-2.501 2.197h-.681l2.6-3.514Zm2.364 14.294c-.19-.773-.17-1.294-.34-1.294-.09 0-.103.04-.131.06-.547.798-.997 1.437-2.49 1.437-1.462 0-2.633-.786-2.633-2.31 0-1.816 2.396-2.57 3.832-3.246 1.208-.558 1.5-.605 1.5-1.957 0-1.056-.399-1.842-1.651-1.842-2.029 0-1.195 1.999-2.58 1.999-.471 0-.785-.223-.785-.724 0-1.426 2.151-1.907 3.79-1.907 1.508 0 2.803.337 2.803 1.693v4.6c0 1.232-.06 2.51.605 3.367l-1.92.124Zm4.512-9.566v.73c0 .163-.02.334.127.334.198 0 1.129-1.282 2.788-1.282 1.599 0 2.6.779 2.6 2.722v4.682c0 .771 0 1.666.34 2.256h-1.916v-5.723c0-1.339-.19-2.804-1.892-2.804-1.69 0-2.006 1.485-2.006 2.904v3.367c0 .771 0 1.666.387 2.256h-2.347c.391-.59.391-1.485.391-2.256v-4.974c0-.86 0-1.674-.454-2.093l1.983-.119Zm13.949 2.145h-.106c-.518-.96-.897-1.607-2.13-1.607-1.902 0-2.944 1.922-2.944 4.218 0 2.097.791 3.85 3.132 3.85.784 0 1.725-.31 2.322-.94v.336c0 1.086-1.487 1.767-3.114 1.767-2.677 0-4.253-2.15-4.253-4.676 0-3.01 1.983-5.311 5.131-5.311 1.042 0 1.962.218 1.962.298v2.065Zm4.954.649c1.045 0 1.599 0 1.599-.793 0-.77-.577-1.587-1.62-1.587-1.34 0-1.922 1.275-2.172 2.38h2.193Zm-2.32.628c-.043.397-.083.729-.083 1.175 0 1.944.895 3.799 3.111 3.799 1.037 0 2.059-.417 2.573-.982v.228c0 1.11-1.789 2.127-3.364 2.127-2.791 0-4.106-2.462-4.106-4.993 0-2.71 1.528-4.994 4.447-4.994 2.042 0 3.253 1.319 3.253 2.678 0 .962-.701.962-2.019.962h-3.812Zm7.106.049c0-1.492 0-2.933-.551-3.367.789-.025 1.533-.104 1.794-.104.377 0 .146 1.042.377 1.042.114 0 .806-1.26 2.069-1.26.744 0 1.168.297 1.168.793 0 .402-.207.697-.743.697-.41 0-.832-.072-1.344-.072-1.059 0-1.191.744-1.191 1.662v4.301c0 .772 0 1.677.385 2.28h-2.34c.376-.603.376-1.508.376-2.28v-3.692Zm13.752-1.428c0-.98-.23-1.505-1.315-1.505-2.363 0-3.638 1.753-3.638 4.139 0 1.906.931 4.016 3.124 4.016 1.234 0 1.829-.925 1.829-2.097V46.1Zm.071 7.652-.086-.798c0-.057-.025-.191-.111-.191-.147 0-.911 1.063-2.874 1.063-2.535 0-3.658-2.462-3.658-4.648 0-3.345 2.196-5.339 5.55-5.339.387 0 .744.05 1.108.084v-2.625c0-.863 0-1.675-.46-2.096l2.039-.33v12.37c0 .794 0 1.692.377 2.257l-1.885.253Zm6.532-6.901c1.045 0 1.599 0 1.599-.793 0-.77-.582-1.587-1.619-1.587-1.346 0-1.923 1.275-2.174 2.38h2.194Zm-2.328.628c-.035.397-.075.729-.075 1.175 0 1.944.895 3.799 3.104 3.799 1.045 0 2.067-.417 2.572-.982v.228c0 1.11-1.78 2.127-3.364 2.127-2.788 0-4.099-2.462-4.099-4.993 0-2.71 1.528-4.994 4.443-4.994 2.046 0 3.258 1.319 3.258 2.678 0 .962-.7.962-2.018.962h-3.821ZM72.707 58.272c0-.944 0-2.033-.47-2.74h2.853c-.47.707-.47 1.796-.47 2.74v9.752h1.618c1.192 0 2.28-.163 3.345-1.19l-.407 1.966c-.42.035-.876.062-1.296.062h-5.894c.63-.813.721-3.764.721-4.743v-5.847Zm11.705 10.171c2.004 0 2.535-1.944 2.535-3.677 0-2.445-.764-4.805-3.025-4.805-2 0-2.53 1.939-2.53 3.677 0 2.444.764 4.805 3.02 4.805Zm-.703.751c-2.935 0-4.106-2.36-4.106-4.641 0-3.233 1.83-5.344 5.027-5.344 2.934 0 4.106 2.359 4.106 4.64 0 3.238-1.837 5.345-5.027 5.345Zm7.236-9.779v.734c0 .164-.016.332.13.332.193 0 1.13-1.272 2.791-1.272 1.592 0 2.593.777 2.593 2.718v4.679c0 .773 0 1.666.344 2.256h-1.92V63.14c0-1.344-.19-2.801-1.892-2.801-1.682 0-1.998 1.487-1.998 2.908v3.36c0 .773 0 1.666.386 2.256h-2.342c.38-.59.38-1.483.38-2.256v-4.974c0-.858 0-1.671-.451-2.093l1.979-.124Zm13.027 2.053c0-.987-.23-1.507-1.315-1.507-2.358 0-3.638 1.753-3.638 4.136 0 1.904.931 4.01 3.124 4.01 1.235 0 1.829-.916 1.829-2.087v-4.552Zm.064 7.642-.084-.79c0-.063-.02-.19-.106-.19-.147 0-.916 1.064-2.874 1.064-2.53 0-3.657-2.464-3.657-4.656 0-3.348 2.185-5.329 5.559-5.329a8.7 8.7 0 0 1 1.098.087v-2.638c0-.853 0-1.671-.47-2.088l2.049-.332v12.368c0 .796 0 1.686.385 2.256l-1.9.248Zm3.114-6.224c0-1.482 0-2.925-.557-3.362.787-.022 1.529-.109 1.789-.109.377 0 .154 1.049.377 1.049.114 0 .814-1.255 2.069-1.255.749 0 1.169.293 1.169.791 0 .395-.207.695-.741.695-.408 0-.827-.065-1.338-.065-1.068 0-1.192.73-1.192 1.647v4.309c0 .769 0 1.671.377 2.276h-2.34c.387-.605.387-1.507.387-2.276v-3.7Zm7.594-3.676v7.396c0 .773 0 1.666.38 2.256h-2.333c.38-.59.38-1.483.38-2.256v-5.643c-.016-.71-.016-1.126-.466-1.424l2.039-.33Zm-.531-3.47.982 1.4-1.536.98-.979-1.355 1.533-1.024Zm3.982 3.675v.734c0 .164-.021.332.126.332.195 0 1.134-1.272 2.788-1.272 1.599 0 2.6.777 2.6 2.718v4.679c0 .773 0 1.666.345 2.256h-1.92V63.14c0-1.344-.19-2.801-1.893-2.801-1.682 0-2.005 1.487-2.005 2.908v3.36c0 .773 0 1.666.386 2.256h-2.339c.376-.59.376-1.483.376-2.256v-4.974c0-.858 0-1.671-.442-2.093l1.978-.124Zm9.707 8.609c1.277 0 1.915-1.125 1.915-2.318v-2.113l-1.151.568c-1.576.774-2.406 1.19-2.406 2.383 0 1.002.683 1.48 1.642 1.48Zm2.173.962c-.19-.78-.167-1.294-.345-1.294-.083 0-.105.047-.126.06-.551.798-1.001 1.442-2.489 1.442-1.462 0-2.641-.788-2.641-2.32 0-1.818 2.403-2.567 3.828-3.236 1.219-.563 1.515-.605 1.515-1.962 0-1.046-.4-1.84-1.663-1.84-2.018 0-1.191 2.004-2.572 2.004-.471 0-.785-.226-.785-.731 0-1.419 2.146-1.9 3.785-1.9 1.513 0 2.811.33 2.811 1.694v4.6c0 1.227-.059 2.501.594 3.36l-1.912.123ZM34.186 15.85h-5.004v-4.927h5.004v4.927Zm0 6.61h-5.004v-4.914h5.004v4.915Zm6.765 0h-5.014v-4.914h5.014v4.915Zm-13.53-.01h-5.003v-4.914h5.003v4.915Zm27.077 26.596h-5.012v-4.92h5.012v4.92Zm0-13.27h-5.012v-4.92h5.012v4.92Z"/><path fill-rule="evenodd" clip-rule="evenodd" d="M47.72 29.13h-5.01v-4.91h5.011v4.91Zm13.504 13.283h-5.003v-4.917h5.003v4.917Zm-6.853 0H49.36v-4.917h5.011v4.917ZM27.429 9.235h-5.011V4.32h5.011v4.915Zm6.762 0h-5.01V4.32h5.01v4.915Zm6.765 0h-5.012V4.32h5.012v4.915Zm6.757 0H42.7V4.32h5.012v4.915ZM27.421 15.85h-5.003v-4.927h5.003v4.927Zm13.53 0h-5.014v-4.927h5.014v4.927Zm6.762 0H42.7v-4.927h5.012v4.927Zm0 6.6H42.7v-4.914h5.012v4.915Zm6.785 6.68h-5.012v-4.91h5.012v4.91Zm6.726 19.926h-5.003v-4.92h5.003v4.92Zm0-13.276h-5.003v-4.919h5.003v4.92Zm0-6.64h-5.003v-4.914h5.003v4.914Zm6.737 19.92H62.95v-4.923h5.011v4.924Zm0-6.647H62.95V37.5h5.011v4.914Zm0-6.633H62.95v-4.919h5.011v4.92Zm0-6.64H62.95v-4.914h5.011v4.914Zm-39.803-4.369 4.584-1.993 2.026 4.498-4.584 1.993-2.026-4.497Zm13.716.657L38.648 29.2l-3.832-3.164 3.218-3.769 3.84 3.161ZM27.386 49.046h-5.009v-4.92h5.009v4.92Zm0-6.636h-5.009v-4.914h5.009v4.915Zm0-6.634h-5.009v-4.92h5.009v4.92Zm0-6.646h-5.009v-4.91h5.009v4.91Zm6.737 19.926h-5.011v-4.92h5.011v4.92Z"/><path fill-rule="evenodd" clip-rule="evenodd" d="m28.398 38.292 4.708 1.686-1.718 4.62-4.71-1.681 1.72-4.625Z"/><path fill-rule="evenodd" clip-rule="evenodd" d="m29.678 32.145 3.835 3.164-3.217 3.77-3.84-3.165 3.222-3.769Z"/><path fill-rule="evenodd" clip-rule="evenodd" d="m29.552 27.27 4.71 1.68-1.71 4.619-4.71-1.684 1.71-4.614ZM40.85 49.06h-5.01v-4.923h5.01v4.924Z"/><path fill-rule="evenodd" clip-rule="evenodd" d="m36.513 38.205 2.51 4.265-4.341 2.455-2.51-4.265 4.341-2.455Z"/><path fill-rule="evenodd" clip-rule="evenodd" d="M36.584 39.4h-5.019v-4.914h5.02v4.915Z"/><path fill-rule="evenodd" clip-rule="evenodd" d="m36.372 28.087 2.504 4.26-4.34 2.457-2.51-4.265 4.346-2.452Zm8.867 9.271 4.71 1.683-1.71 4.63-4.718-1.692 1.718-4.621Zm1.5-6.838 2.51 4.254-4.347 2.46-2.502-4.26 4.339-2.455Zm.981 18.526h-5.01v-4.92h5.011v4.92Z"/><path fill-rule="evenodd" clip-rule="evenodd" d="m40.662 36.51 3.836 3.158-3.218 3.764-3.84-3.154 3.222-3.769Z"/><path fill-rule="evenodd" clip-rule="evenodd" d="m38.694 32.969 4.708 1.678-1.718 4.627-4.71-1.688 1.72-4.617Z"/><path fill-rule="evenodd" clip-rule="evenodd" d="M43.382 33.284H38.37v-4.915h5.01v4.915ZM20.644 49.06H2.169V24.22h18.475v24.84Zm27.069 19.837H22.418V50.762h25.295v18.135Z"/><path d="M134.089 67.845h.127c.148 0 .268-.049.268-.166 0-.104-.078-.173-.247-.173a.656.656 0 0 0-.148.014v.325Zm-.007.642h-.267v-1.133c.105-.02.253-.034.443-.034.219 0 .317.034.402.083a.312.312 0 0 1 .112.248c0 .124-.098.221-.239.263v.013c.113.042.176.125.211.277.036.172.057.241.085.283h-.289c-.035-.042-.056-.145-.091-.276-.022-.125-.092-.18-.24-.18h-.127v.456Zm-.711-.594c0 .504.38.904.902.904.507 0 .88-.4.88-.897 0-.504-.373-.911-.888-.911a.888.888 0 0 0-.894.904Zm2.078 0c0 .642-.514 1.146-1.184 1.146-.662 0-1.19-.504-1.19-1.146 0-.628.528-1.132 1.19-1.132.67 0 1.184.504 1.184 1.132Z"/></g></svg>